<svg width="959" height="405" viewBox="0 0 959 405" fill="none" xmlns="http://www.w3.org/2000/svg">
<path d="M57.0667 380.486C41.1629 380.486 28.2215 375.614 18.2426 365.869C8.26376 356.124 3.27432 343.533 3.27432 328.097C3.27432 312.661 8.26376 300.07 18.2426 290.325C28.2215 280.58 41.1629 275.708 57.0667 275.708C62.7578 275.708 68.0981 276.41 73.0875 277.813C78.1549 279.138 82.9495 281.243 87.4711 284.128C91.9928 286.934 95.8129 290.91 98.9313 296.056C102.128 301.201 104.311 307.243 105.48 314.181H83.1444C79.0904 302.019 70.3979 295.939 57.0667 295.939C48.2573 295.939 40.929 298.979 35.082 305.06C29.235 311.063 26.3115 318.742 26.3115 328.097C26.3115 337.452 29.235 345.17 35.082 351.251C40.929 357.254 48.2573 360.256 57.0667 360.256C70.3979 360.256 79.0904 354.136 83.1444 341.896H105.48C104.544 347.509 102.946 352.538 100.685 356.981C98.4245 361.425 95.7349 365.128 92.6165 368.091C89.5761 370.975 86.0679 373.353 82.0919 375.224C78.1159 377.095 74.062 378.42 69.9301 379.2C65.8762 380.057 61.5884 380.486 57.0667 380.486ZM166.404 380.486C150.422 380.486 137.442 375.614 127.463 365.869C117.484 356.124 112.494 343.533 112.494 328.097C112.494 312.661 117.484 300.07 127.463 290.325C137.442 280.58 150.422 275.708 166.404 275.708C182.464 275.708 195.483 280.58 205.462 290.325C215.441 300.07 220.43 312.661 220.43 328.097C220.43 343.533 215.441 356.124 205.462 365.869C195.483 375.614 182.464 380.486 166.404 380.486ZM166.404 360.256C175.291 360.256 182.658 357.293 188.506 351.368C194.353 345.365 197.276 337.608 197.276 328.097C197.276 318.586 194.353 310.868 188.506 304.943C182.658 298.94 175.291 295.939 166.404 295.939C157.594 295.939 150.227 298.94 144.302 304.943C138.455 310.868 135.532 318.586 135.532 328.097C135.532 337.608 138.455 345.365 144.302 351.368C150.227 357.293 157.594 360.256 166.404 360.256ZM228.676 377.212V278.982H251.947V357.683H308.546V377.212H228.676ZM317.615 377.212V278.982H340.886V357.683H397.485V377.212H317.615ZM406.553 377.212V278.982H489.23V298.044H429.824V319.56H487.125V336.4H429.824V358.034H489.23V377.212H406.553ZM550.133 380.486C534.23 380.486 521.288 375.614 511.309 365.869C501.33 356.124 496.341 343.533 496.341 328.097C496.341 312.661 501.33 300.07 511.309 290.325C521.288 280.58 534.23 275.708 550.133 275.708C555.824 275.708 561.165 276.41 566.154 277.813C571.222 279.138 576.016 281.243 580.538 284.128C585.059 286.934 588.88 290.91 591.998 296.056C595.194 301.201 597.377 307.243 598.547 314.181H576.211C572.157 302.019 563.465 295.939 550.133 295.939C541.324 295.939 533.996 298.979 528.149 305.06C522.302 311.063 519.378 318.742 519.378 328.097C519.378 337.452 522.302 345.17 528.149 351.251C533.996 357.254 541.324 360.256 550.133 360.256C563.465 360.256 572.157 354.136 576.211 341.896H598.547C597.611 347.509 596.013 352.538 593.752 356.981C591.491 361.425 588.802 365.128 585.683 368.091C582.643 370.975 579.135 373.353 575.159 375.224C571.183 377.095 567.129 378.42 562.997 379.2C558.943 380.057 554.655 380.486 550.133 380.486ZM699.426 278.982V298.511H662.589V377.212H639.201V298.511H602.482V278.982H699.426ZM708.724 377.212V278.982H731.995V377.212H708.724ZM794.18 380.486C778.198 380.486 765.218 375.614 755.239 365.869C745.26 356.124 740.271 343.533 740.271 328.097C740.271 312.661 745.26 300.07 755.239 290.325C765.218 280.58 778.198 275.708 794.18 275.708C810.24 275.708 823.259 280.58 833.238 290.325C843.217 300.07 848.206 312.661 848.206 328.097C848.206 343.533 843.217 356.124 833.238 365.869C823.259 375.614 810.24 380.486 794.18 380.486ZM794.18 360.256C803.067 360.256 810.435 357.293 816.282 351.368C822.129 345.365 825.052 337.608 825.052 328.097C825.052 318.586 822.129 310.868 816.282 304.943C810.435 298.94 803.067 295.939 794.18 295.939C785.37 295.939 778.003 298.94 772.078 304.943C766.231 310.868 763.308 318.586 763.308 328.097C763.308 337.608 766.231 345.365 772.078 351.368C778.003 357.293 785.37 360.256 794.18 360.256ZM856.452 377.212V278.982H883.465L929.072 345.053H931.294V278.982H954.097V377.212H927.552L881.361 311.141H879.256V377.212H856.452Z" fill="url(#paint0_linear_567_4331)"/>
<path d="M262.273 155.866C252.958 164.73 241.779 169.396 229.203 169.396V148.867C236.656 148.867 242.711 146.534 248.3 141.402C253.424 136.736 256.218 130.671 256.218 123.206V29.8931H276.712V123.206C276.712 135.803 271.589 146.534 262.273 155.866Z" fill="url(#paint1_linear_567_4331)"/>
<path d="M314.914 135.334V30.3571H334.943V135.334H314.914Z" fill="url(#paint2_linear_567_4331)"/>
<path d="M592.496 120.857C582.249 131.588 569.208 137.187 554.303 137.187C539.398 137.187 526.356 132.055 515.643 121.791C504.93 111.526 499.807 98.4623 499.807 83.5323C499.807 68.6022 504.93 55.5384 515.643 45.274C526.356 34.543 538.932 29.4108 553.837 29.4108C565.016 29.4108 574.797 32.6767 584.112 38.7421C592.962 44.8074 599.949 53.2056 604.607 63.47L532.877 110.126C539.398 115.259 546.384 118.058 554.303 118.058C564.084 118.058 572.002 114.792 578.057 107.794C584.578 100.795 587.839 92.397 587.839 83.0657H608.333C608.333 96.5961 603.209 109.66 592.496 120.857ZM553.837 49.0065C544.521 49.0065 536.603 52.2724 530.082 59.2709C523.561 65.8028 520.301 74.201 520.301 83.5323C520.301 86.3316 520.767 89.131 521.698 92.397L575.728 57.4046C569.208 51.3393 561.755 49.0065 553.837 49.0065Z" fill="url(#paint3_linear_567_4331)"/>
<path d="M705.238 135.332V74.6784C705.238 67.68 702.909 61.6146 697.785 56.949C692.662 51.8168 686.607 49.4839 680.086 49.4839C673.099 49.4839 667.044 51.8168 662.386 56.949C657.263 62.0812 654.934 68.1465 654.934 74.6784V135.332H634.439V74.6784C634.439 62.5478 639.097 51.8168 648.413 42.4855C657.728 33.1542 668.441 28.4885 680.551 28.4885C692.662 28.4885 703.375 33.1542 712.224 42.4855C721.54 51.8168 726.198 62.5478 726.198 74.6784V135.332H705.238Z" fill="url(#paint4_linear_567_4331)"/>
<path d="M472.336 144.669C472.336 174.53 448.115 198.791 418.306 198.791C388.496 198.791 364.275 174.53 364.275 144.669C364.275 144.203 364.275 143.736 364.275 142.803H384.77C384.77 143.27 384.77 143.736 384.77 144.669C384.77 163.332 399.674 178.262 418.306 178.262C436.937 178.262 451.842 163.332 451.842 144.669C451.842 144.203 451.842 142.337 451.842 133.938C452.307 133.938 452.307 133.472 452.773 133.472C461.157 128.34 468.144 120.875 472.336 112.01C471.87 120.408 472.336 144.203 472.336 144.669Z" fill="url(#paint5_linear_567_4331)"/>
<path d="M473.28 0.0293494C466.759 0.495914 461.636 6.09469 462.102 13.0932C462.567 20.5582 462.102 25.6904 462.102 25.6904C462.102 25.6904 468.157 24.7573 475.143 24.2907C481.664 23.8241 486.788 18.2254 486.322 11.2269C485.856 4.69498 479.801 -0.437215 473.28 0.0293494Z" fill="url(#paint6_linear_567_4331)"/>
<path d="M467.225 56.9444C456.978 39.6815 458.841 30.3503 458.841 30.3503C458.841 30.3503 451.854 35.949 430.894 30.3503C427.168 29.4171 423.442 28.9506 419.716 28.9506C389.906 28.9506 365.686 53.2119 365.686 83.0721C365.686 112.932 389.906 137.194 419.716 137.194C449.526 137.194 473.746 112.932 473.746 83.0721C473.746 73.7408 471.417 64.876 467.225 56.9444ZM419.716 116.665C401.085 116.665 386.18 101.735 386.18 83.0721C386.18 64.4095 401.085 49.4794 419.716 49.4794C438.347 49.4794 453.252 64.4095 453.252 83.0721C453.252 101.735 438.347 116.665 419.716 116.665Z" fill="url(#paint7_linear_567_4331)"/>
<defs>
<linearGradient id="paint0_linear_567_4331" x1="-115.741" y1="207.801" x2="1074.74" y2="207.801" gradientUnits="userSpaceOnUse">
<stop offset="0.362847" stop-color="#ECECEC"/>
<stop offset="0.984141" stop-color="#ECECEC" stop-opacity="0"/>
</linearGradient>
<linearGradient id="paint1_linear_567_4331" x1="146.537" y1="29.5227" x2="388.138" y2="-37.8881" gradientUnits="userSpaceOnUse">
<stop offset="0.362847" stop-color="#ECECEC"/>
<stop offset="0.826389" stop-color="#ECECEC" stop-opacity="0"/>
</linearGradient>
<linearGradient id="paint2_linear_567_4331" x1="223.793" y1="44.2909" x2="427.998" y2="-14.7511" gradientUnits="userSpaceOnUse">
<stop offset="0.362847" stop-color="#ECECEC"/>
<stop offset="0.984141" stop-color="#ECECEC" stop-opacity="0"/>
</linearGradient>
<linearGradient id="paint3_linear_567_4331" x1="6.05637" y1="43.7162" x2="366.265" y2="-505.959" gradientUnits="userSpaceOnUse">
<stop offset="0.362847" stop-color="#ECECEC"/>
<stop offset="0.984141" stop-color="#ECECEC" stop-opacity="0"/>
</linearGradient>
<linearGradient id="paint4_linear_567_4331" x1="216.977" y1="42.6701" x2="593.297" y2="-447.104" gradientUnits="userSpaceOnUse">
<stop offset="0.362847" stop-color="#ECECEC"/>
<stop offset="0.984141" stop-color="#ECECEC" stop-opacity="0"/>
</linearGradient>
<linearGradient id="paint5_linear_567_4331" x1="-127.356" y1="123.529" x2="134.402" y2="-370.42" gradientUnits="userSpaceOnUse">
<stop offset="0.362847" stop-color="#ECECEC"/>
<stop offset="0.984141" stop-color="#ECECEC" stop-opacity="0"/>
</linearGradient>
<linearGradient id="paint6_linear_567_4331" x1="351.611" y1="3.40985" x2="439.524" y2="-122.499" gradientUnits="userSpaceOnUse">
<stop offset="0.362847" stop-color="#ECECEC"/>
<stop offset="0.984141" stop-color="#ECECEC" stop-opacity="0"/>
</linearGradient>
<linearGradient id="paint7_linear_567_4331" x1="-125.946" y1="43.3179" x2="237.058" y2="-505.867" gradientUnits="userSpaceOnUse">
<stop offset="0.362847" stop-color="#ECECEC"/>
<stop offset="0.984141" stop-color="#ECECEC" stop-opacity="0"/>
</linearGradient>
</defs>
</svg>
