<svg width="341" height="1002" viewBox="0 0 341 1002" fill="none" xmlns="http://www.w3.org/2000/svg">
<path d="M0 1H239.531C295.019 1 340 45.9814 340 101.469V101.469C340 156.589 295.591 201.416 240.473 201.933L118.034 203.081C63.7434 203.59 20 247.745 20 302.038V302.038C20 356.693 64.3067 401 118.962 401H240C295.228 401 340 445.772 340 501V501C340 556.228 295.228 601 240 601H120C64.7715 601 20 645.772 20 701V701C20 756.228 64.7715 801 120 801H240C295.228 801 340 845.772 340 901V901C340 956.228 295.228 1001 240 1001H0" stroke="#ECECEC" stroke-opacity="0.1" stroke-width="2"/>
<path d="M0 1H240C295.228 1 340 45.7715 340 101V101C340 156.228 295.228 201 240 201H120C64.7715 201 20 245.772 20 301V301C20 356.228 64.7715 401 120 401H240C295.228 401 340 445.772 340 501V501C340 556.228 295.228 601 240 601H120C64.7715 601 20 645.772 20 701V701C20 756.228 64.7715 801 120 801H240C295.228 801 340 845.772 340 901V901C340 956.228 295.228 1001 240 1001H0" stroke="url(#paint0_linear_714_2696)"/>
<defs>
<linearGradient id="paint0_linear_714_2696" x1="-33" y1="-27" x2="120.5" y2="179" gradientUnits="userSpaceOnUse">
<stop stop-color="#4FC4AE"/>
<stop offset="1" stop-color="#4FC4AE" stop-opacity="0"/>
</linearGradient>
</defs>
</svg>
