<svg width="20" height="20" viewBox="0 0 20 20" fill="none" xmlns="http://www.w3.org/2000/svg">
<path d="M10 1.25C5.175 1.25 1.25 5.175 1.25 10C1.25 14.825 5.175 18.75 10 18.75C14.825 18.75 18.75 14.825 18.75 10C18.75 5.175 14.825 1.25 10 1.25ZM14.2938 7.7375L9.45 13.45C9.34375 13.575 9.1875 13.6563 9.025 13.6688H8.975C8.825 13.6688 8.68125 13.6187 8.56875 13.5187L5.775 11.125C5.51875 10.9 5.4875 10.5 5.7125 10.2437C5.9375 9.98125 6.33125 9.95 6.59375 10.175L8.90625 12.1625L13.3375 6.925C13.5625 6.6625 13.9563 6.63125 14.2188 6.85625C14.4812 7.075 14.5125 7.475 14.2938 7.7375Z" fill="#ECECEC"/>
</svg>
