<svg width="14" height="14" viewBox="0 0 14 14" fill="none" xmlns="http://www.w3.org/2000/svg">
<path d="M7 14C10.865 14 14 10.865 14 7C14 3.13499 10.865 0 7 0C3.13499 0 0 3.13499 0 7C0 10.865 3.13499 14 7 14ZM6.49998 3.00001C6.49998 2.725 6.72499 2.49999 7 2.49999C7.27501 2.49999 7.50001 2.725 7.50001 3.00001V6.76001L9.81251 8.61001C10.0275 8.78251 10.0625 9.09749 9.89 9.3125C9.79249 9.43499 9.64751 9.49999 9.49999 9.49999C9.38999 9.49999 9.27998 9.46497 9.18751 9.38999L6.68752 7.39001C6.57002 7.29499 6.50003 7.15251 6.50003 7V3.00001H6.49998Z" fill="#ECECEC"/>
</svg>
