<svg width="60" height="60" viewBox="0 0 60 60" fill="none" xmlns="http://www.w3.org/2000/svg">
<path d="M0 32.1562V59.9999H52.2595V59.0636H27.2288C20.2556 59.0636 13.568 56.2935 8.63718 51.3627C3.7064 46.432 0.936365 39.7444 0.936365 32.7712C0.936365 32.5649 0.936365 32.3745 0.936365 32.1562H0Z" fill="#17A68B"/>
<path d="M59.9998 27.8437V0H7.73633V0.936316H32.7711C39.7415 0.940524 46.425 3.71248 51.3523 8.6428C56.2797 13.5731 59.0476 20.2583 59.0476 27.2287C59.0476 27.435 59.0476 27.6255 59.0476 27.8437H59.9998Z" fill="url(#paint0_linear_567_3971)" fill-opacity="0.1"/>
<path d="M29.999 24.8799C31.0122 24.8791 32.0028 25.1788 32.8456 25.7412C33.6885 26.3035 34.3456 27.1032 34.7339 28.039C35.1221 28.9749 35.2241 30.0049 35.027 30.9987C34.8298 31.9925 34.3423 32.9056 33.6261 33.6223C32.91 34.339 31.9973 34.8272 31.0036 35.0252C30.0099 35.2231 28.9798 35.1219 28.0437 34.7344C27.1075 34.3468 26.3074 33.6903 25.7444 32.8479C25.1814 32.0056 24.8809 31.0151 24.8809 30.0019C24.8809 28.6441 25.42 27.3419 26.3797 26.3815C27.3394 25.421 28.6412 24.8809 29.999 24.8799V24.8799Z" fill="#17A68B"/>
<defs>
<linearGradient id="paint0_linear_567_3971" x1="-42.7093" y1="-26.1098" x2="87.9821" y2="38.7871" gradientUnits="userSpaceOnUse">
<stop stop-color="white"/>
<stop offset="1" stop-color="white" stop-opacity="0"/>
</linearGradient>
</defs>
</svg>
