<svg width="61" height="60" viewBox="0 0 61 60" fill="none" xmlns="http://www.w3.org/2000/svg">
<path d="M50.3775 59.9997C50.3775 57.3846 51.416 54.8766 53.2646 53.0274C55.1131 51.1782 57.6202 50.1394 60.2344 50.1394C58.9383 50.1394 57.6549 49.8837 56.4577 49.3868C55.2604 48.89 54.1728 48.1619 53.2572 47.2441C52.3417 46.3263 51.616 45.2369 51.1219 44.0382C50.6277 42.8396 50.3748 41.5551 50.3775 40.2585C50.3775 41.5561 50.1221 42.841 49.6257 44.0398C49.1293 45.2386 48.4017 46.3278 47.4845 47.2454C46.5673 48.1629 45.4784 48.8907 44.28 49.3872C43.0816 49.8838 41.7971 50.1394 40.5 50.1394C41.7962 50.1367 43.0802 50.3897 44.2785 50.8841C45.4767 51.3784 46.5657 52.1043 47.4832 53.0201C48.4007 53.936 49.1286 55.0239 49.6253 56.2216C50.1219 57.4192 50.3775 58.7031 50.3775 59.9997Z" fill="url(#paint0_linear_567_3981)" fill-opacity="0.1"/>
<path d="M30.6265 40.2424C30.6265 37.6273 31.6649 35.1192 33.5134 33.2701C35.362 31.4209 37.8692 30.3821 40.4834 30.3821C39.1872 30.3821 37.9038 30.1263 36.7065 29.6295C35.5093 29.1327 34.4218 28.4046 33.5062 27.4868C32.5906 26.569 31.865 25.4796 31.3709 24.2809C30.8767 23.0822 30.6238 21.7978 30.6265 20.5012C30.6265 23.1182 29.5885 25.6283 27.7406 27.4808C25.8926 29.3332 23.3856 30.3766 20.7695 30.3821C23.3838 30.3821 25.8909 31.4209 27.7394 33.2701C29.5879 35.1192 30.6265 37.6273 30.6265 40.2424Z" fill="#17A68B"/>
<path d="M10.8755 59.9999C10.8755 57.3848 11.9141 54.8768 13.7626 53.0277C15.6111 51.1785 18.1182 50.1396 20.7325 50.1396C19.4363 50.1396 18.1528 49.8839 16.9556 49.3871C15.7584 48.8903 14.6709 48.1621 13.7553 47.2443C12.8397 46.3266 12.1141 45.2372 11.6199 44.0385C11.1258 42.8398 10.8728 41.5554 10.8755 40.2588C10.8755 42.8794 9.83483 45.3926 7.98245 47.2456C6.13006 49.0986 3.61771 50.1396 0.998047 50.1396C2.2942 50.1369 3.57815 50.39 4.77642 50.8843C5.97469 51.3786 7.06377 52.1045 7.98124 53.0204C8.89872 53.9363 9.62657 55.0242 10.1232 56.2218C10.6198 57.4195 10.8755 58.7033 10.8755 59.9999Z" fill="#17A68B"/>
<path d="M51.1206 19.7409C51.1206 17.1203 52.1613 14.6071 54.0137 12.7541C55.8661 10.9011 58.3784 9.86005 60.9981 9.86005C59.7019 9.86275 58.418 9.6097 57.2197 9.11538C56.0215 8.62107 54.9324 7.89519 54.0149 6.97931C53.0974 6.06342 52.3695 4.97552 51.8728 3.77787C51.3762 2.58023 51.1206 1.29636 51.1206 -0.000244141C51.1206 2.61487 50.0821 5.12287 48.2335 6.97203C46.385 8.8212 43.8779 9.86005 41.2637 9.86005C42.5598 9.86005 43.8433 10.1158 45.0405 10.6126C46.2378 11.1094 47.3253 11.8375 48.2409 12.7553C49.1564 13.6731 49.8821 14.7625 50.3762 15.9612C50.8703 17.1599 51.1233 18.4443 51.1206 19.7409Z" fill="url(#paint1_linear_567_3981)" fill-opacity="0.1"/>
<path d="M10.8755 20.4845C10.8755 17.8694 11.9141 15.3614 13.7626 13.5123C15.6111 11.6631 18.1182 10.6242 20.7325 10.6242C19.4363 10.6242 18.1528 10.3685 16.9556 9.87171C15.7584 9.3749 14.6709 8.64677 13.7553 7.72898C12.8397 6.81119 12.1141 5.72177 11.6199 4.52309C11.1258 3.32441 10.8728 2.04001 10.8755 0.743408C10.8755 2.04098 10.62 3.32584 10.1236 4.52464C9.62722 5.72343 8.89965 6.8127 7.98245 7.73022C7.06524 8.64774 5.97641 9.37555 4.77802 9.87211C3.57963 10.3687 2.29517 10.6242 0.998047 10.6242C2.2942 10.6215 3.57815 10.8746 4.77642 11.3689C5.97469 11.8632 7.06377 12.5891 7.98124 13.505C8.89872 14.4209 9.62657 15.5088 10.1232 16.7064C10.6198 17.9041 10.8755 19.1879 10.8755 20.4845Z" fill="url(#paint2_linear_567_3981)" fill-opacity="0.1"/>
<defs>
<linearGradient id="paint0_linear_567_3981" x1="21.452" y1="21.7467" x2="78.9475" y2="36.9519" gradientUnits="userSpaceOnUse">
<stop stop-color="white"/>
<stop offset="1" stop-color="white" stop-opacity="0"/>
</linearGradient>
<linearGradient id="paint1_linear_567_3981" x1="22.2157" y1="-18.5121" x2="79.7112" y2="-3.30687" gradientUnits="userSpaceOnUse">
<stop stop-color="white"/>
<stop offset="1" stop-color="white" stop-opacity="0"/>
</linearGradient>
<linearGradient id="paint2_linear_567_3981" x1="-18.05" y1="-17.7684" x2="39.4455" y2="-2.56322" gradientUnits="userSpaceOnUse">
<stop stop-color="white"/>
<stop offset="1" stop-color="white" stop-opacity="0"/>
</linearGradient>
</defs>
</svg>
