<svg width="60" height="60" viewBox="0 0 60 60" fill="none" xmlns="http://www.w3.org/2000/svg">
<path d="M45.5277 35.96H44.4963V43.8078C44.4963 47.8172 42.9682 51.6623 40.2482 54.4974C37.5282 57.3324 33.839 58.9251 29.9923 58.9251C26.1456 58.9251 22.4565 57.3324 19.7364 54.4974C17.0164 51.6623 15.4883 47.8172 15.4883 43.8078V35.96H14.457V60H45.5277V35.96Z" fill="#17A68B"/>
<path d="M1.04881 60V31.264C1.04881 23.2585 4.09994 15.581 9.53098 9.92031C14.962 4.25962 22.3281 1.07948 30.0087 1.07948C37.6894 1.07948 45.0555 4.25962 50.4865 9.92031C55.9176 15.581 58.9687 23.2585 58.9687 31.264V60H60V0H0V60H1.04881Z" fill="url(#paint0_linear_567_3962)" fill-opacity="0.1"/>
<defs>
<linearGradient id="paint0_linear_567_3962" x1="-57.913" y1="-56.2637" x2="116.887" y2="-10.0206" gradientUnits="userSpaceOnUse">
<stop stop-color="white"/>
<stop offset="1" stop-color="white" stop-opacity="0"/>
</linearGradient>
</defs>
</svg>
