<svg width="61" height="60" viewBox="0 0 61 60" fill="none" xmlns="http://www.w3.org/2000/svg">
<path d="M35.9807 55.7123C33.9315 53.6626 32.5361 51.0512 31.9708 48.2083C31.4056 45.3655 31.696 42.4189 32.8053 39.7411C33.9145 37.0633 35.7929 34.7746 38.2027 33.1643C40.6126 31.554 43.4459 30.6946 46.3442 30.6946C49.2425 30.6946 52.0756 31.554 54.4855 33.1643C56.8954 34.7746 58.7737 37.0633 59.883 39.7411C60.9923 42.4189 61.2826 45.3655 60.7174 48.2083C60.1522 51.0512 58.7568 53.6626 56.7076 55.7123C53.9573 58.4579 50.2301 59.9999 46.3442 59.9999C42.4582 59.9999 38.7309 58.4579 35.9807 55.7123ZM56.2394 35.4523C54.2812 33.4971 51.7874 32.1662 49.0731 31.628C46.3588 31.0897 43.5459 31.3682 40.9899 32.4282C38.4338 33.4882 36.2493 35.2822 34.7124 37.5834C33.1756 39.8847 32.3553 42.5899 32.3553 45.3572C32.3553 48.1245 33.1756 50.8297 34.7124 53.1309C36.2493 55.4322 38.4338 57.2262 40.9899 58.2862C43.5459 59.3462 46.3588 59.6247 49.0731 59.0864C51.7874 58.5482 54.2812 57.2173 56.2394 55.2621C58.8644 52.6338 60.3382 49.0705 60.3369 45.3557C60.3355 41.6409 58.8591 38.0787 56.2322 35.4523H56.2394Z" fill="url(#paint0_linear_567_3994)" fill-opacity="0.1"/>
<path d="M36.4477 35.4518C38.8861 33.0144 42.1417 31.568 45.5848 31.3926C45.8715 28.3888 45.2241 25.3696 43.7309 22.7475C42.2377 20.1254 39.9717 18.0282 37.2421 16.7421C34.5126 15.4561 31.4527 15.044 28.4802 15.5622C25.5077 16.0803 22.7676 17.5033 20.6341 19.637C18.5005 21.7707 17.0775 24.511 16.5595 27.4837C16.0414 30.4564 16.4534 33.5165 17.7394 36.2463C19.0253 38.976 21.1224 41.2422 23.7443 42.7354C26.3663 44.2287 29.3852 44.8762 32.3888 44.5895C32.5626 41.1458 34.009 37.8893 36.4477 35.4518Z" fill="#17A68B"/>
<path d="M15.3718 28.6412C12.6275 28.5877 9.9595 27.7283 7.69979 26.1701C5.44008 24.6118 3.68842 22.4234 2.66278 19.8773C1.63714 17.3311 1.38279 14.5395 1.93139 11.8498C2.47999 9.1602 3.80733 6.69128 5.74822 4.75025C7.68912 2.80923 10.1579 1.4818 12.8473 0.933161C15.5368 0.384521 18.3282 0.638888 20.8742 1.6646C23.4202 2.69031 25.6084 4.44208 27.1666 6.70195C28.7247 8.96182 29.584 11.63 29.6375 14.3745C29.8608 14.3745 30.0805 14.3385 30.3038 14.3313C30.2403 11.461 29.3352 8.67253 27.7009 6.31216C26.0666 3.95179 23.775 2.12345 21.1107 1.05416C18.4465 -0.0151291 15.5268 -0.278273 12.7143 0.297396C9.90178 0.873066 7.32027 2.2622 5.29029 4.29231C3.26032 6.32242 1.8713 8.90411 1.29567 11.7168C0.720037 14.5295 0.983163 17.4493 2.05238 20.1138C3.12159 22.7783 4.94979 25.07 7.31 26.7044C9.67022 28.3389 12.4585 29.244 15.3286 29.3075C15.3358 29.0878 15.3538 28.8645 15.3718 28.6412Z" fill="url(#paint1_linear_567_3994)" fill-opacity="0.1"/>
<path d="M45.2995 33.1399C42.4204 33.3845 39.7205 34.6394 37.6774 36.6827C35.6342 38.726 34.3794 41.4261 34.1348 44.3054C36.8742 43.7193 39.3858 42.3534 41.3667 40.3723C43.3476 38.3912 44.7134 35.8795 45.2995 33.1399Z" fill="url(#paint2_linear_567_3994)" fill-opacity="0.1"/>
<defs>
<linearGradient id="paint0_linear_567_3994" x1="3.39955" y1="3.21411" x2="88.7859" y2="25.8061" gradientUnits="userSpaceOnUse">
<stop stop-color="white"/>
<stop offset="1" stop-color="white" stop-opacity="0"/>
</linearGradient>
<linearGradient id="paint1_linear_567_3994" x1="-27.2884" y1="-27.483" x2="58.0898" y2="-4.89777" gradientUnits="userSpaceOnUse">
<stop stop-color="white"/>
<stop offset="1" stop-color="white" stop-opacity="0"/>
</linearGradient>
<linearGradient id="paint2_linear_567_3994" x1="23.3583" y1="22.6697" x2="55.8853" y2="31.2741" gradientUnits="userSpaceOnUse">
<stop stop-color="white"/>
<stop offset="1" stop-color="white" stop-opacity="0"/>
</linearGradient>
</defs>
</svg>
