<svg width="29" height="29" viewBox="0 0 29 29" fill="none" xmlns="http://www.w3.org/2000/svg">
<path d="M20.5424 11.0804C20.3161 10.8553 20.0098 10.729 19.6906 10.729C19.3713 10.729 19.0651 10.8553 18.8387 11.0804L14.5008 15.3579L10.2233 11.0804C9.99689 10.8553 9.69063 10.729 9.37141 10.729C9.05218 10.729 8.74593 10.8553 8.51953 11.0804C8.40628 11.1927 8.31638 11.3264 8.25504 11.4736C8.19369 11.6208 8.16211 11.7788 8.16211 11.9383C8.16211 12.0978 8.19369 12.2557 8.25504 12.403C8.31638 12.5502 8.40628 12.6839 8.51953 12.7962L13.6429 17.9195C13.7552 18.0328 13.8888 18.1227 14.0361 18.184C14.1833 18.2454 14.3413 18.277 14.5008 18.277C14.6603 18.277 14.8182 18.2454 14.9655 18.184C15.1127 18.1227 15.2464 18.0328 15.3587 17.9195L20.5424 12.7962C20.6557 12.6839 20.7456 12.5502 20.8069 12.403C20.8683 12.2557 20.8999 12.0978 20.8999 11.9383C20.8999 11.7788 20.8683 11.6208 20.8069 11.4736C20.7456 11.3264 20.6557 11.1927 20.5424 11.0804Z" fill="white"/>
</svg>
