<svg width="19" height="20" viewBox="0 0 19 20" fill="none" xmlns="http://www.w3.org/2000/svg">
<g clip-path="url(#clip0_568_3041)">
<path d="M0.0626831 17.9277C0.18262 17.6368 0.517458 17.4984 0.805092 17.6173C1.02163 17.7063 1.23166 17.8175 1.43246 17.9511C2.25414 18.4981 3.31457 18.4981 4.13625 17.9511C5.33996 17.1478 6.89751 17.1478 8.10126 17.9511C8.92294 18.4981 9.98337 18.4981 10.805 17.9511C12.0088 17.1478 13.5663 17.1478 14.77 17.9511C15.5917 18.4981 16.6521 18.4981 17.4738 17.9511C17.692 17.8056 17.9624 17.6846 18.205 17.5907C18.497 17.4784 18.8269 17.6233 18.9404 17.9169C19.0532 18.2099 18.9072 18.5388 18.6141 18.6522C18.4497 18.7157 18.2907 18.7982 18.1414 18.8975C16.9377 19.7008 15.3431 19.7008 14.1394 18.8975C13.3177 18.3505 12.2573 18.3505 11.4356 18.8975C10.2319 19.7008 8.67431 19.7008 7.47059 18.8975C6.64892 18.3505 5.58848 18.3505 4.76681 18.8975C3.56302 19.7008 2.00599 19.7005 0.801789 18.8981C0.665041 18.8064 0.521206 18.7309 0.373066 18.6702C0.0822031 18.5507 -0.056178 18.2181 0.0626831 17.9277Z" fill="white"/>
<path d="M1.65996 15.0541H7.86404V13.9426H2.77628C2.33442 13.9021 2.13763 13.4529 2.3283 13.1107L7.41617 3.86043H6.1598C4.62069 3.86043 3.3681 2.60785 3.3681 1.06874C3.3681 0.754533 3.62267 0.5 3.93688 0.5H8.38272C8.69692 0.5 8.93847 0.754533 8.93847 1.06877V2.91025C13.0656 3.78618 16.1037 8.28935 16.5809 12.1076L16.7274 13.3164C16.7637 13.6088 16.5801 13.9028 16.2237 13.9427H8.97554V15.0541H17.3285V15.0541C17.7292 15.0942 17.9224 15.4661 17.8139 15.7895L17.5112 16.698C17.2925 16.7994 17.0709 16.8966 16.8707 17.0301C16.4231 17.3274 15.8506 17.3295 15.3994 17.0295C14.6266 16.514 13.7279 16.241 12.8009 16.241C11.874 16.241 10.9753 16.514 10.2013 17.0301C9.76348 17.3216 9.18962 17.3347 8.73062 17.0295C7.95782 16.514 7.0591 16.241 6.13211 16.241C5.20516 16.241 4.30645 16.514 3.53253 17.0301C3.09468 17.3216 2.52082 17.3347 2.06182 17.0295C1.8798 16.9084 1.68174 16.8177 1.48573 16.7233L1.1745 15.7894C1.06603 15.4661 1.25918 15.0942 1.65996 15.0541ZM7.82701 1.63751H4.60659C4.83889 2.2703 5.44726 2.72292 6.15984 2.72292H7.82701V1.63751ZM8.93847 11.7778C9.60302 10.6239 10.0369 9.00708 10.0369 7.79257C10.0369 6.74119 9.62837 5.63411 8.93847 4.75458V11.7778Z" fill="white"/>
</g>
<defs>
<clipPath id="clip0_568_3041">
<rect width="19" height="19" fill="white" transform="matrix(-1 0 0 1 19 0.5)"/>
</clipPath>
</defs>
</svg>
