<svg width="100" height="100" viewBox="0 0 100 100" fill="none" xmlns="http://www.w3.org/2000/svg">
<path d="M49.3933 100V53.0415L31.4251 96.4209L30.3037 95.9601L48.2769 52.5806L15.07 85.7809L14.2148 84.9258L47.4218 51.7204L4.03509 69.6928L3.57429 68.5765L46.9559 50.6042H0V49.3958H46.9559L3.57429 31.4235L4.03509 30.3072L47.4218 48.2745L14.2148 15.0742L15.07 14.2191L48.2769 47.4194L30.3037 4.03993L31.4251 3.57398L49.3933 46.9585V0H50.6068V46.9585L68.575 3.57398L69.6913 4.03993L51.7231 47.4194L84.925 14.2191L85.7852 15.0742L52.5783 48.2745L95.965 30.3072L96.4258 31.4235L53.0442 49.3958H100V50.6042H53.0442L96.4258 68.5765L95.965 69.6928L52.5783 51.7204L85.7852 84.9258L84.925 85.7809L51.7231 52.5806L69.6913 95.9601L68.575 96.4209L50.6068 53.0415V100H49.3933Z" fill="#ECECEC" fill-opacity="0.1"/>
</svg>
