<svg width="16" height="12" viewBox="0 0 16 12" fill="none" xmlns="http://www.w3.org/2000/svg">
<path d="M3.5251 9.60758C7.0047 11.0921 9.96585 11.3812 13.3214 9.07057C13.2969 9.1109 12.6331 10.1859 10.8876 10.7368C11.2563 11.2878 11.7603 11.9194 11.7603 11.9194C12.8789 11.9194 13.973 11.57 14.9194 10.8981C15.657 10.3606 16.0749 9.43336 15.9889 8.46587C15.8414 6.81299 15.4849 5.20045 14.9317 3.65513C14.2311 1.63947 12.547 0.241915 10.5925 0.0403325C10.4204 0.0268884 10.2975 0.0268884 10.2238 0.0268884L10.0271 0.241875C12.2766 0.940652 13.3952 2.02911 13.4198 2.06944C9.96563 0.16125 5.88459 0.134401 2.40582 1.98882C2.40582 1.98882 3.51214 0.792846 5.9583 0.16125L5.8108 0C5.55265 0 5.30679 0.0268882 5.04868 0.0671808C3.24169 0.403125 1.72975 1.76035 1.07825 3.62821C0.512788 5.24075 0.144027 6.93391 0.00882017 8.65396C-0.0649321 9.56773 0.328425 10.4681 1.01679 10.9922C1.92642 11.6506 3.00814 12 4.10216 12C4.10216 12 4.54467 11.3684 4.98723 10.804C3.32774 10.2665 2.65168 9.19149 2.63938 9.15116L2.95168 9.32549C3.13838 9.42977 3.32979 9.52424 3.5251 9.60758ZM5.45433 8.43898C4.65532 8.41209 4.02841 7.67302 4.05301 6.7861C4.0776 5.95297 4.69222 5.28108 5.45433 5.25419C6.25335 5.28108 6.88026 6.02015 6.85566 6.90706C6.81877 7.74024 6.21645 8.41213 5.45433 8.43898ZM10.4696 8.43898C9.67058 8.41209 9.04367 7.67302 9.06827 6.7861C9.09286 5.95297 9.70748 5.28108 10.4696 5.25419C11.2686 5.28108 11.8955 6.02015 11.8709 6.90706C11.8464 7.74024 11.2317 8.41213 10.4696 8.43898Z" fill="white"/>
</svg>
