<svg width="20" height="20" viewBox="0 0 20 20" fill="none" xmlns="http://www.w3.org/2000/svg">
<path d="M17.4998 9.16656C17.2788 9.16656 17.0669 9.25436 16.9106 9.41064C16.7543 9.56692 16.6665 9.77888 16.6665 9.9999C16.6764 11.5608 16.1417 13.0762 15.1546 14.2853C14.1674 15.4943 12.7894 16.3213 11.2581 16.6237C9.72683 16.9262 8.13799 16.6852 6.76526 15.9422C5.39253 15.1993 4.32184 14.0009 3.73761 12.5534C3.15337 11.106 3.09217 9.50016 3.56452 8.01246C4.03688 6.52476 5.01323 5.24834 6.32542 4.40305C7.63762 3.55775 9.2035 3.19649 10.7534 3.38149C12.3033 3.56649 13.7401 4.28616 14.8165 5.41656H12.8165C12.5955 5.41656 12.3835 5.50436 12.2273 5.66064C12.071 5.81692 11.9832 6.02888 11.9832 6.2499C11.9832 6.47091 12.071 6.68287 12.2273 6.83915C12.3835 6.99543 12.5955 7.08323 12.8165 7.08323H16.5915C16.8125 7.08323 17.0245 6.99543 17.1808 6.83915C17.337 6.68287 17.4248 6.47091 17.4248 6.2499V2.4999C17.4248 2.27888 17.337 2.06692 17.1808 1.91064C17.0245 1.75436 16.8125 1.66656 16.5915 1.66656C16.3705 1.66656 16.1585 1.75436 16.0023 1.91064C15.846 2.06692 15.7582 2.27888 15.7582 2.4999V3.9749C14.3704 2.64828 12.5671 1.84153 10.6532 1.69101C8.73924 1.54049 6.83203 2.05544 5.25394 3.14881C3.67585 4.24218 2.52368 5.8469 1.9922 7.69172C1.46071 9.53654 1.58251 11.5083 2.33701 13.2737C3.09151 15.0391 4.43242 16.4898 6.13309 17.3806C7.83375 18.2714 9.78984 18.5477 11.6707 18.1628C13.5516 17.7779 15.2418 16.7553 16.4558 15.268C17.6697 13.7806 18.3329 11.9198 18.3332 9.9999C18.3332 9.77888 18.2454 9.56692 18.0891 9.41064C17.9328 9.25436 17.7209 9.16656 17.4998 9.16656Z" fill="white"/>
</svg>
