<svg width="18" height="17" viewBox="0 0 18 17" fill="none" xmlns="http://www.w3.org/2000/svg">
<path d="M8 15.5V9.5C8 8.67157 7.32843 8 6.5 8C5.67157 8 5 8.67157 5 9.5V15.5C5 16.3284 5.67157 17 6.5 17C7.32843 17 8 16.3284 8 15.5Z" fill="#ECECEC" fill-opacity="0.1"/>
<path d="M13 15.5V1.5C13 0.671573 12.3284 0 11.5 0C10.6716 0 10 0.671573 10 1.5V15.5C10 16.3284 10.6716 17 11.5 17C12.3284 17 13 16.3284 13 15.5Z" fill="#ECECEC"/>
<path d="M18 15.5V5.5C18 4.67157 17.3284 4 16.5 4C15.6716 4 15 4.67157 15 5.5V15.5C15 16.3284 15.6716 17 16.5 17C17.3284 17 18 16.3284 18 15.5Z" fill="#ECECEC"/>
<path d="M3 15.5V12.5C3 11.6716 2.32843 11 1.5 11C0.671573 11 0 11.6716 0 12.5V15.5C0 16.3284 0.671573 17 1.5 17C2.32843 17 3 16.3284 3 15.5Z" fill="#ECECEC" fill-opacity="0.1"/>
</svg>
