<svg width="20" height="20" viewBox="0 0 20 20" fill="none" xmlns="http://www.w3.org/2000/svg">
<path fill-rule="evenodd" clip-rule="evenodd" d="M11.4294 16.6871C10.9682 16.7846 10.4898 16.8358 9.99984 16.8358C6.20525 16.8358 3.12484 13.7554 3.12484 9.96082C3.12484 9.38624 2.65817 8.91915 2.08317 8.91915C1.50817 8.91915 1.0415 9.38624 1.0415 9.96082C1.0415 14.9054 5.05567 18.9192 9.99984 18.9192C10.6378 18.9192 11.2603 18.8525 11.8607 18.7254C12.4232 18.6062 12.7832 18.0529 12.664 17.4904C12.5452 16.9279 11.9919 16.5679 11.4294 16.6871ZM10.9686 3.15373C14.3053 3.62457 16.8748 6.4954 16.8748 9.96082C16.8748 12.4125 15.5886 14.5662 13.6548 15.7837C13.1682 16.09 13.0219 16.7337 13.3286 17.22C13.6348 17.7067 14.2786 17.8529 14.7648 17.5466C17.2836 15.9604 18.9582 13.1546 18.9582 9.96082C18.9582 5.44457 15.6082 1.70457 11.2598 1.09082C10.6907 1.01041 10.1632 1.40748 10.0827 1.97665C10.0023 2.54581 10.3994 3.07332 10.9686 3.15373ZM3.61943 7.39666C4.35609 5.56791 5.85693 4.12748 7.72526 3.47165C8.26776 3.28123 8.55316 2.68623 8.36275 2.14373C8.17233 1.60123 7.57734 1.31541 7.03526 1.50582C4.60151 2.35999 2.64693 4.23624 1.68693 6.61832C1.47234 7.15165 1.73068 7.75915 2.26401 7.97373C2.79735 8.18873 3.40484 7.92999 3.61943 7.39666Z" fill="#ECECEC"/>
</svg>
