<svg width="16" height="14" viewBox="0 0 16 14" fill="none" xmlns="http://www.w3.org/2000/svg">
<path d="M14.3623 3.48506C14.3719 3.63666 14.3719 3.789 14.3719 3.94198C14.3719 8.61329 11.0695 14 5.0317 14V13.9972C3.24794 13.9998 1.50122 13.4495 0 12.4121C0.259344 12.4456 0.520251 12.4626 0.781439 12.4632C2.25988 12.4648 3.69582 11.9307 4.85826 10.9469C3.45382 10.9185 2.22141 9.93207 1.79138 8.49204C2.28329 8.59407 2.79035 8.57331 3.27363 8.4314C1.74194 8.09822 0.640439 6.64887 0.640033 4.96617C0.640033 4.951 0.640033 4.93585 0.640033 4.92138C1.09653 5.19541 1.60753 5.34718 2.12997 5.36384C0.687345 4.32645 0.242313 2.26013 1.1136 0.644913C2.78047 2.85331 5.23964 4.19578 7.87905 4.3383C7.61445 3.11068 7.97617 1.82414 8.82871 0.960769C10.1506 -0.377967 12.2301 -0.30925 13.4733 1.11429C14.2084 0.958178 14.9134 0.667998 15.5577 0.256235C15.3127 1.07485 14.7998 1.76969 14.1146 2.21147C14.7653 2.12865 15.4009 1.94118 16 1.65531C15.5593 2.36506 15.0047 2.98466 14.3623 3.48506Z" fill="white"/>
</svg>
