<svg width="12" height="18" viewBox="0 0 12 18" fill="none" xmlns="http://www.w3.org/2000/svg">
<path d="M4.20997 17.9573C4.44809 18.0591 4.72494 17.9741 4.86402 17.7544L11.1921 7.6997C11.2946 7.53696 11.3008 7.33148 11.2081 7.1636C11.1154 6.99521 10.9382 6.89065 10.7462 6.89065H6.52276L8.09347 0.657131C8.15683 0.405307 8.02858 0.145221 7.79015 0.0427407C7.55326 -0.0592124 7.27465 0.0262525 7.1361 0.245627L0.807974 10.3003C0.705493 10.4631 0.699306 10.6685 0.792013 10.8364C0.88472 11.0048 1.06187 11.1094 1.25397 11.1094H5.47736L3.90665 17.3429C3.84329 17.5947 3.97151 17.8548 4.20997 17.9573Z" fill="#17A68B"/>
</svg>
