<svg width="80" height="32" viewBox="0 0 80 32" fill="none" xmlns="http://www.w3.org/2000/svg">
<path d="M5.3233 25.0897C3.82378 26.5167 2.02435 27.2677 0 27.2677V23.9632C1.19962 23.9632 2.1743 23.5877 3.07402 22.7616C3.89875 22.0105 4.34861 21.0342 4.34861 19.8325V4.81201H7.64755V19.8325C7.64755 21.8603 6.82282 23.5877 5.3233 25.0897Z" fill="#ECECEC"/>
<path d="M13.7969 21.7848V4.88672H17.0208V21.7848H13.7969Z" fill="#ECECEC"/>
<path d="M58.4788 19.4545C56.8294 21.1819 54.73 22.0831 52.3308 22.0831C49.9316 22.0831 47.8322 21.257 46.1078 19.6047C44.3833 17.9524 43.5586 15.8496 43.5586 13.4463C43.5586 11.043 44.3833 8.94013 46.1078 7.28787C47.8322 5.56051 49.8566 4.73438 52.2558 4.73438C54.0552 4.73438 55.6297 5.26009 57.1293 6.23643C58.5538 7.21276 59.6784 8.56461 60.4282 10.2169L48.8819 17.7271C49.9316 18.5533 51.0562 19.0039 52.3308 19.0039C53.9053 19.0039 55.1799 18.4782 56.1546 17.3516C57.2042 16.2251 57.7291 14.8732 57.7291 13.3712H61.028C61.028 15.5492 60.2033 17.652 58.4788 19.4545ZM52.2558 7.88869C50.7563 7.88869 49.4817 8.41441 48.432 9.54095C47.3824 10.5924 46.8575 11.9442 46.8575 13.4463C46.8575 13.8969 46.9325 14.3475 47.0825 14.8732L55.7797 9.24054C54.73 8.2642 53.5304 7.88869 52.2558 7.88869Z" fill="#ECECEC"/>
<path d="M76.6268 21.7844V12.0211C76.6268 10.8946 76.2519 9.91823 75.4272 9.1672C74.6025 8.34107 73.6278 7.96556 72.5781 7.96556C71.4535 7.96556 70.4788 8.34107 69.729 9.1672C68.9043 9.99333 68.5294 10.9697 68.5294 12.0211V21.7844H65.2305V12.0211C65.2305 10.0684 65.9802 8.34107 67.4797 6.83902C68.9793 5.33696 70.7037 4.58594 72.6531 4.58594C74.6025 4.58594 76.3269 5.33696 77.7515 6.83902C79.251 8.34107 80.0007 10.0684 80.0007 12.0211V21.7844H76.6268Z" fill="#ECECEC"/>
<path d="M39.1366 23.2875C39.1366 28.094 35.2379 31.9994 30.4394 31.9994C25.6409 31.9994 21.7422 28.094 21.7422 23.2875C21.7422 23.2124 21.7422 23.1373 21.7422 22.9871H25.0411C25.0411 23.0622 25.0411 23.1373 25.0411 23.2875C25.0411 26.2916 27.4404 28.6949 30.4394 28.6949C33.4384 28.6949 35.8377 26.2916 35.8377 23.2875C35.8377 23.2124 35.8377 22.912 35.8377 21.5601C35.9127 21.5601 35.9127 21.485 35.9876 21.485C37.3372 20.6589 38.4618 19.4572 39.1366 18.0303C39.0616 19.3821 39.1366 23.2124 39.1366 23.2875Z" fill="#ECECEC"/>
<path d="M39.2885 0.004744C38.2389 0.0798467 37.4141 0.981078 37.4891 2.10762C37.5641 3.30926 37.4891 4.13539 37.4891 4.13539C37.4891 4.13539 38.4638 3.98519 39.5884 3.91008C40.6381 3.83498 41.4628 2.93375 41.3879 1.80721C41.3129 0.755769 40.3382 -0.0703587 39.2885 0.004744Z" fill="#ECECEC"/>
<path d="M38.3448 9.50616C36.6953 6.72736 36.9952 5.22531 36.9952 5.22531C36.9952 5.22531 35.8706 6.12654 32.4966 5.22531C31.8968 5.0751 31.297 5 30.6972 5C25.8988 5 22 8.90534 22 13.7119C22 18.5185 25.8988 22.4238 30.6972 22.4238C35.4957 22.4238 39.3944 18.5185 39.3944 13.7119C39.3944 12.2099 39.0196 10.7829 38.3448 9.50616ZM30.6972 19.1193C27.6982 19.1193 25.2989 16.716 25.2989 13.7119C25.2989 10.7078 27.6982 8.30452 30.6972 8.30452C33.6963 8.30452 36.0955 10.7078 36.0955 13.7119C36.0955 16.716 33.6963 19.1193 30.6972 19.1193Z" fill="#ECECEC"/>
</svg>
