<svg width="117" height="34" viewBox="0 0 117 34" fill="none" xmlns="http://www.w3.org/2000/svg">
<path d="M84.6853 0.0950283C85.0816 0.252165 85.487 0.392164 85.8836 0.531976C86.0993 0.606641 86.3149 0.68134 86.5307 0.747344L86.6429 0.784764C86.695 0.78605 86.7557 0.79623 86.8076 0.80618C87.7619 0.90772 88.7024 1.21696 89.6273 1.45648C91.192 1.85047 92.7853 2.14115 94.3793 2.40584C95.9217 2.64324 97.4744 2.82022 99.0291 2.91056C100.671 2.99438 102.324 2.97444 103.97 2.91098C104.788 2.87915 105.599 2.82109 106.41 2.73706C107.064 2.65783 107.719 2.56995 108.365 2.46452C109.09 2.34369 109.814 2.24017 110.539 2.12801C111.246 2.01541 111.954 1.89415 112.654 1.73803C113.126 1.63697 113.613 1.62301 114.101 1.58303C114.267 1.56977 114.424 1.5563 114.589 1.54305C114.738 1.52937 114.694 1.52829 114.468 1.54005L114.547 1.50729C114.644 1.45767 114.766 1.42606 114.872 1.39397C115.073 1.32093 115.395 1.34618 115.602 1.41197C115.887 1.49701 116.126 1.68495 116.302 1.92337C116.639 2.37378 116.651 2.96349 116.369 3.45066C116.242 3.67291 116.115 3.89519 115.987 4.11744C115.89 4.53114 115.741 4.95221 115.574 5.34688L115.593 5.304C115.508 5.56197 115.389 5.81043 115.278 6.0591C115.121 6.43665 114.964 6.81419 114.764 7.17334C114.5 7.63495 114.228 8.08767 113.956 8.54907C113.393 9.48876 112.814 10.4021 112.192 11.2883C110.948 13.0694 109.635 14.8141 108.271 16.5055C106.817 18.3161 105.312 20.0821 103.73 21.7942C102.256 23.3962 100.679 24.9004 99.06 26.3602C98.1437 27.1871 97.2193 27.9879 96.2777 28.7795C95.7094 29.251 95.1411 29.7224 94.5391 30.1497C94.0433 30.5015 93.5475 30.8534 93.0519 31.1966L93.3798 30.9533C92.5998 31.5408 91.7688 32.0839 90.9554 32.6186C90.7785 32.7356 90.6106 32.8442 90.4172 32.9261C90.3203 32.9757 90.2149 33.0164 90.118 33.0661C90.0652 33.0908 90.0211 33.1157 89.9683 33.1404C89.8892 33.1731 89.8364 33.1978 89.7838 33.2139C89.6778 33.2806 89.301 33.3926 89.301 33.3926C89.2043 33.4336 89.1079 33.4659 89.0112 33.5069C88.818 33.5801 88.6248 33.6534 88.4316 33.7267C88.1155 33.8489 87.7205 33.6398 87.5437 33.4014C87.3585 33.1541 87.2909 32.719 87.4975 32.4553C87.7309 32.1577 87.9645 31.86 88.198 31.5624C88.4853 31.1967 88.7824 30.7879 89.1294 30.4757C89.7342 29.9358 90.3303 29.3957 90.9179 28.8468C91.5055 28.2978 92.0679 27.7135 92.6558 27.1559C93.2436 26.5982 93.8569 26.0672 94.4445 25.5182C96.7954 23.305 99.0105 20.9583 101.183 18.576C102.354 17.2959 103.491 15.9802 104.585 14.6462C105.787 13.1588 106.93 11.6353 108.055 10.094C107.055 10.7715 106.013 11.4047 104.929 11.9761C101.774 13.6494 98.3123 14.6997 94.7995 15.3499C87.2846 16.7424 79.695 16.2258 72.2329 14.7676C63.4983 13.0612 55.0534 10.1918 46.4244 8.08061C42.3433 7.08713 38.5269 6.29088 34.4921 5.88801C30.9085 5.53094 27.2743 5.45871 23.6834 5.75162C23.4567 5.77204 23.2387 5.79264 23.0121 5.81306C22.8986 5.8276 22.7854 5.83352 22.6807 5.84827L22.5499 5.86235C22.1311 5.91271 21.7123 5.96309 21.2934 6.02211C20.4117 6.14775 19.5297 6.29068 18.6554 6.46851C16.9333 6.81615 15.226 7.26821 13.5591 7.8426C12.6378 8.16664 12.2338 8.32138 11.3634 8.69868C10.5718 9.05192 9.78835 9.43138 9.02159 9.83724C8.25461 10.2518 7.51304 10.6929 6.78804 11.1692C6.08084 11.6285 5.37304 12.1138 4.83208 12.5339C4.13167 13.0715 3.45665 13.6357 2.8069 14.2351C1.47175 15.4678 -0.376127 13.5065 0.865105 12.2021C5.85632 6.97652 12.7734 4.07833 19.8224 2.88244C27.4041 1.60433 35.044 2.2001 42.5394 3.71985C51.2548 5.49507 59.6996 8.37319 68.3376 10.4672C72.3929 11.4514 76.1839 12.221 80.2189 12.6153C83.7856 12.9546 87.4028 13.0091 90.9852 12.7073C91.2119 12.6869 91.4298 12.6662 91.6565 12.6458C91.7699 12.6312 91.8744 12.6252 91.9879 12.6106C91.9181 12.6176 91.735 12.639 92.0664 12.6039C92.5112 12.5542 92.9563 12.4958 93.3926 12.4372C94.2743 12.3116 95.1479 12.1598 96.0134 11.9817C97.7271 11.6252 99.4257 11.1729 101.084 10.5897C103.997 9.56923 106.829 8.29538 109.389 6.44269C107.57 6.81396 105.729 7.05466 103.873 7.19095C101.938 7.34263 100 7.26884 98.0737 7.09132C95.9909 6.89261 93.8673 6.58885 91.8551 6.00178C90.8274 5.69905 89.81 5.33589 88.8105 4.94716C88.1902 4.70648 87.5879 4.44026 86.986 4.15669C86.4873 3.91901 85.9456 3.66295 85.5378 3.27147C84.9102 2.96993 84.3011 2.62548 83.7094 2.28148C83.1949 1.98273 83.0203 1.30229 83.2506 0.779183C83.4806 0.273396 84.1246 -0.0921959 84.6847 0.120995L84.6853 0.0950283Z" fill="white"/>
</svg>
