<svg width="57" height="46" viewBox="0 0 57 46" fill="none" xmlns="http://www.w3.org/2000/svg">
<path d="M56.0728 0.126677C55.5974 -0.126378 54.9992 0.00397723 54.7232 0.479415C54.1864 1.38428 53.6343 2.2738 53.0515 3.15566C52.9134 3.3627 52.7678 3.57742 52.6297 3.78447C52.5607 3.88416 52.4917 3.98386 52.4227 4.08355C52.4073 4.10655 52.3843 4.14489 52.369 4.17556C52.3843 4.16023 52.3767 4.16022 52.3614 4.19089C52.3537 4.20623 52.3383 4.22158 52.3307 4.22925L52.3 4.26758C52.254 4.32126 52.2157 4.3826 52.1696 4.43628L52.0393 4.61266C51.9779 4.68935 51.9166 4.7737 51.8552 4.85038C51.6405 5.12644 51.4335 5.40249 51.2264 5.67855C51.073 5.87793 50.9274 6.08498 50.774 6.28436C50.728 6.3457 50.4673 6.69077 50.659 6.43771C50.5823 6.54507 50.4979 6.64476 50.4136 6.75211C50.0838 7.16621 49.7541 7.58032 49.4167 7.99441C48.7572 8.79191 48.0747 9.57408 47.3769 10.3332C45.9736 11.8592 44.5013 13.3162 42.9523 14.7042C42.1778 15.3944 41.3879 16.0692 40.5827 16.721C40.3834 16.882 40.1917 17.0354 39.9923 17.1964C39.9003 17.2731 39.8006 17.3421 39.7086 17.4188C39.6319 17.4801 39.1871 17.8022 39.5399 17.5492C39.1334 17.8406 38.7347 18.1626 38.3359 18.4617C34.9925 20.9692 31.4114 23.1547 27.6539 24.9798C26.7184 25.4322 25.7829 25.877 24.832 26.2911C24.6096 26.3908 24.3949 26.4828 24.1725 26.5748C24.1265 26.5978 24.0728 26.6131 24.0268 26.6362C23.9041 26.6898 23.7738 26.7435 23.6511 26.7972C23.168 26.9966 22.6925 27.1883 22.2017 27.3723C20.2617 28.1161 18.2909 28.7526 16.2971 29.3354C14.3033 29.9182 12.2789 30.4473 10.2315 30.8231C9.84805 30.8921 9.46463 30.9534 9.07354 31.0148C10.4845 29.8492 11.8111 28.5839 13.0457 27.2266C14.5487 25.5702 15.9213 23.7758 17.1406 21.8971C17.7157 21.0152 18.1912 20.049 18.6436 19.0982C18.866 18.6381 19.0807 18.1703 19.2801 17.6949C19.5332 17.1044 19.8169 16.5063 20.0162 15.8928C20.2003 15.3483 20.323 14.7809 20.4533 14.2288C20.5914 13.646 20.7141 13.0555 20.8291 12.465C20.9441 11.8362 21.0898 11.2228 21.1129 10.5863C21.1282 10.0035 21.1205 9.4207 21.1129 8.83791C21.1129 8.5005 20.6144 8.3318 20.4457 8.65387C20.3306 8.88392 20.208 9.10631 20.0853 9.32869C20.0316 9.42071 19.9702 9.51272 19.9242 9.60474L19.8552 9.75812C19.8706 9.69677 19.8629 9.70443 19.8322 9.77344C19.7785 9.84246 19.7479 9.92682 19.7019 9.99583C19.5792 10.1952 19.4564 10.4022 19.3414 10.6093C19.2571 10.778 19.1957 10.9697 19.1191 11.1461L19.1344 11.1001L19.073 11.2381L19.027 11.3378C18.5746 12.2657 18.0838 13.1705 17.5624 14.06C17.0333 14.9496 16.5732 15.8621 16.044 16.7516C15.5149 17.6412 14.9551 18.5154 14.357 19.3589C13.7129 20.2714 13.1071 21.1916 12.4323 22.0812C10.8373 24.1133 9.05051 25.9843 7.08742 27.656C6.57364 28.0931 6.04453 28.5225 5.50774 28.9443C4.05076 30.0485 2.51709 31.0531 0.91441 31.9273C0.254933 32.2877 -0.0824615 33.0852 0.017227 33.806C0.0632371 34.1434 0.178247 34.4272 0.385293 34.6956C0.615343 34.9946 0.975778 35.309 1.36686 35.3704C4.18115 35.8458 6.94939 36.5743 9.62564 37.5559C10.3311 37.8089 11.0213 38.085 11.7115 38.3687C12.555 38.7291 13.3832 39.1125 14.2037 39.519C15.1085 39.9637 16.0441 40.3625 16.9413 40.8226C17.8155 41.275 18.6743 41.7505 19.5331 42.2336C20.3996 42.7243 21.2892 43.2228 22.1097 43.7979C22.3321 43.9513 22.5468 44.1046 22.7692 44.2657C22.8919 44.3577 23.0069 44.4267 23.1449 44.4881C23.1986 44.5111 23.26 44.534 23.3137 44.5647C23.3443 44.5801 23.3827 44.5954 23.4134 44.6108C23.7124 44.7258 23.7584 44.7488 23.5437 44.6798C23.559 44.6644 24.786 45.6 24.8933 45.6843C25.2537 45.968 25.8365 45.7687 26.0819 45.4466C26.358 45.0862 26.335 44.5647 26.0129 44.235C25.7062 43.9206 25.3918 43.6062 25.0697 43.3071C25.0007 43.2381 24.9316 43.1691 24.855 43.1077C24.832 43.0924 24.8243 43.0771 24.809 43.0771L24.786 43.0464C24.6173 42.8087 24.4486 42.571 24.2262 42.3793C23.5744 41.8118 22.9226 41.2443 22.2554 40.6845C20.8521 39.519 19.3798 38.4531 17.8385 37.4792C17.11 37.0191 16.3814 36.5666 15.6069 36.1832C14.8248 35.7921 14.0349 35.4241 13.2298 35.079C11.5274 34.3428 9.79437 33.6834 8.02298 33.1312C8.33738 33.1006 8.65177 33.0699 8.96617 33.0392C9.55663 32.9702 10.1471 32.9012 10.7452 32.8168C10.7682 32.8168 10.8756 32.8015 10.9523 32.7862C11.0366 32.7785 11.4123 32.7478 11.0979 32.7631C11.1976 32.7631 11.2973 32.7325 11.397 32.7248C11.7114 32.6865 12.0182 32.6405 12.3326 32.5944C13.3601 32.4411 14.3877 32.2724 15.3999 32.0577C19.6022 31.1681 23.6664 29.7495 27.5849 28.0011C31.4267 26.2834 35.0922 24.1056 38.5047 21.6441C41.9861 19.1365 45.1914 16.2609 48.0824 13.0939C49.5471 11.4912 50.9197 9.80413 52.2157 8.06342C53.4656 6.38405 54.5928 4.60498 55.6587 2.80292C55.9195 2.35816 56.1802 1.90572 56.4332 1.45329C56.6863 1.00085 56.5559 0.356729 56.0805 0.103673L56.0728 0.126677Z" fill="white"/>
</svg>
