<svg width="124" height="37" viewBox="0 0 124 37" fill="none" xmlns="http://www.w3.org/2000/svg">
<path d="M122.227 8.32683C121.5 9.1039 120.774 9.91432 119.948 10.5863C119.155 11.2322 118.436 11.9592 117.688 12.6585C116.134 14.1076 114.559 15.5271 112.918 16.8785C109.648 19.5737 106.31 21.8727 102.655 23.9623C95.3533 28.1396 87.5457 31.0559 79.3097 32.6422C70.8794 34.2685 62.2624 34.4041 53.7346 32.9823C44.8617 31.5015 36.2252 28.2882 28.441 23.7801C20.5639 19.2188 13.57 13.255 7.71925 6.28374C7.12948 5.57552 6.54703 4.85615 5.98121 4.1237C6.49491 4.18186 7.0123 4.23443 7.53334 4.28143C9.19843 4.42554 10.8669 4.51589 12.5425 4.54689C14.32 4.58099 16.1083 4.57423 17.8774 4.42677C19.5464 4.28544 21.2076 4.08302 22.8666 3.82315C23.7776 3.67883 24.6842 3.41963 25.578 3.19202C25.6927 3.16355 25.8167 3.13319 25.9314 3.10473C26.1202 3.061 26.2163 3.01225 26.3474 2.92252L26.3142 2.94867L26.4268 2.88686C26.4268 2.88686 26.4656 2.86439 26.4805 2.86615C26.4712 2.86806 26.4527 2.87187 26.4194 2.87392C26.5248 2.84735 26.619 2.78935 26.717 2.74986C26.7521 2.73297 26.7928 2.71977 26.8372 2.70098C26.913 2.67088 26.9167 2.6653 26.8372 2.70098L27.0222 2.63873C27.2404 2.55035 27.4566 2.45271 27.6692 2.36066C27.904 2.25921 28.081 2.1118 28.2747 1.95129C28.4683 1.79077 28.3923 1.46872 28.1602 1.39595C27.9393 1.33052 27.735 1.25204 27.5014 1.24228C27.2734 1.2362 27.0455 1.23009 26.8248 1.21285C26.6098 1.19928 26.391 1.19131 26.1796 1.17216C26.1259 1.16877 26.0702 1.1561 26.0201 1.14713C25.9311 1.13653 25.9348 1.13095 26.0201 1.14713C26.1685 1.1648 26.1072 1.14847 25.829 1.10932C25.7438 1.11723 25.6586 1.12513 25.5678 1.12936L25.6919 1.1231C25.6252 1.12719 25.5585 1.13128 25.4974 1.13905C24.5155 1.19667 23.5295 1.18761 22.5514 1.26375L22.8793 1.2396C21.5826 1.33797 20.2838 1.403 18.9811 1.42543C17.6747 1.45344 16.372 1.47585 15.0691 1.47419C12.4448 1.47468 9.81974 1.33064 7.21232 1.03821C5.85484 0.888607 4.50267 0.694479 3.16137 0.459527C3.13537 0.450412 3.10381 0.437613 3.07223 0.424825C2.60954 0.21625 2.02483 0.375348 1.63533 0.638934C1.19411 0.932475 0.916941 1.38999 0.888594 1.93131C0.866471 2.26874 0.875782 2.59487 0.877751 2.93215C0.885019 3.22493 0.881101 3.51037 0.940228 3.79728C0.970885 3.96946 1.00345 4.15091 1.03411 4.32308L1.39599 6.31325C1.6392 7.65732 1.89902 8.98831 2.17925 10.3247C2.45567 11.6427 2.73768 12.9642 3.0141 14.2822C3.29801 15.613 3.61893 16.9363 3.9306 18.2614C4.1017 18.998 4.31158 19.7121 4.52337 20.4355C4.76921 21.2773 4.98729 22.1249 5.27749 22.9479C5.23977 22.8351 5.19646 22.7186 5.15873 22.6057C5.21581 22.8593 5.29902 23.1461 5.40047 23.3809C5.47182 23.5398 5.57271 23.6782 5.66992 23.8222C5.78402 24.0013 5.90179 24.1749 6.08597 24.2961C6.30922 24.4431 6.57275 24.5045 6.83762 24.4789C7.05064 24.4591 7.23561 24.3968 7.41471 24.2828C7.61777 24.1444 7.84992 23.9133 7.89479 23.6628C7.94333 23.4068 8.0214 23.1302 8.0366 22.8762C8.0518 22.6222 8.00371 22.3186 7.96324 22.0519C7.91493 21.3961 7.82769 20.7387 7.75896 20.0775C7.68833 19.407 7.63989 18.7271 7.53592 18.0587C7.3168 16.7145 7.12542 15.3646 6.88779 14.0242C6.42207 11.3897 5.95635 8.7552 5.39807 6.13977C10.5398 13.2523 17.0337 19.271 24.3748 24.0874C32.1717 29.1959 40.9001 32.9016 50.0132 34.8926C58.8331 36.8185 67.9049 37.1344 76.8318 35.7869C85.342 34.5011 93.6564 31.7504 101.285 27.7566C105.104 25.7587 108.764 23.4318 112.203 20.832C113.919 19.5377 115.581 18.1677 117.163 16.7129C118.748 15.2525 120.4 13.7398 121.652 11.9719C122.245 11.1308 122.956 10.3427 123.602 9.51974C124.224 8.72105 122.947 7.58503 122.244 8.33786L122.227 8.32683ZM26.4342 2.87569L26.4028 2.88698C26.4028 2.88698 26.4249 2.87759 26.4342 2.87569Z" fill="white"/>
</svg>
