<svg width="121" height="50" viewBox="0 0 121 50" fill="none" xmlns="http://www.w3.org/2000/svg">
<path d="M0.845765 49.737C0.0256957 49.2955 -0.275753 48.4379 0.29106 47.7925C2.66685 45.1009 5.57329 42.6385 8.60031 40.2949C11.5067 38.0363 14.7387 35.956 18.0673 34.003C24.8931 30.0037 32.3702 26.5903 40.378 23.8901C48.6269 21.1135 57.3342 19.0502 66.3308 17.8529C76.0752 16.5538 86.0607 16.2651 95.9257 16.9359C99.3748 17.1737 102.812 17.5133 106.225 17.9718C104.826 17.0718 103.427 16.1802 102.016 15.2801C99.7848 13.8536 97.5055 12.4611 95.3347 10.9921C93.164 9.52319 90.9811 8.06272 88.8827 6.53432C87.7008 5.67672 86.4828 4.8361 85.3612 3.92755C85.0838 3.70679 84.8185 3.48602 84.5412 3.26525C84.4085 3.15486 84.2758 3.04448 84.1311 2.9341C84.0346 2.85768 83.9381 2.78126 83.8417 2.69635C83.7211 2.60294 83.6367 2.50105 83.5764 2.39067C83.4558 2.30576 83.0578 1.70289 82.9975 1.62647C82.7684 1.32928 82.6478 1.15097 82.4307 0.836795C82.1533 0.446205 82.6236 -0.13968 83.311 0.0301417C83.6728 0.123544 84.0346 0.199964 84.3844 0.301857L84.4085 0.301857L84.4809 0.32733C84.5532 0.352803 84.6376 0.369785 84.71 0.395259C84.8788 0.446205 85.0597 0.497152 85.2286 0.539607C85.3854 0.582063 85.5421 0.624519 85.6869 0.658483C85.9522 0.726412 86.1572 0.777358 86.3743 0.896233L86.4466 0.930198L86.4104 0.904725C86.4104 0.904725 86.4466 0.921707 86.4707 0.930198C86.7963 1.06606 87.1099 1.23588 87.4235 1.38872C88.6656 1.98309 89.8475 2.62842 91.0414 3.26525C92.3801 3.98699 93.7549 4.69175 95.0574 5.44746C96.2151 6.11826 97.3728 6.78905 98.5305 7.45985C100.87 8.80993 103.125 10.2195 105.405 11.6205C107.696 13.0215 110 14.431 112.291 15.8321C114.775 17.352 117.284 18.8634 119.768 20.3748C119.852 20.4258 119.937 20.4852 120.033 20.5361C120.902 21.0711 121.179 22.0476 120.89 22.7948C120.805 23.0155 120.672 23.2193 120.504 23.4146C120.371 23.559 120.214 23.6948 120.045 23.8222C119.672 24.0769 119.249 24.2637 118.755 24.3826C117.332 24.8666 115.909 25.3591 114.462 25.7921C114.751 25.7072 115.028 25.6223 115.318 25.5374C112.134 26.4884 109.011 27.5158 105.839 28.5008C102.679 29.4773 99.6039 30.5726 96.4563 31.5576C94.7076 32.1095 92.971 32.6784 91.2103 33.2133C89.9319 33.6549 88.6535 34.1134 87.3873 34.5719C86.7722 34.8012 86.1692 35.0389 85.5301 35.2342C84.8788 35.438 84.2276 35.6503 83.5764 35.8541C83.2749 35.9475 82.9613 36.0494 82.6598 36.1513C82.5272 36.1937 82.3945 36.2362 82.2618 36.2786C82.2136 36.2956 82.1774 36.3041 82.1292 36.3211C82.298 36.2786 82.3221 36.2701 82.2136 36.3126C82.0568 36.3805 81.8759 36.44 81.7191 36.4994C81.092 36.7371 80.4649 36.9834 79.8499 37.2296C78.6077 37.7221 77.3776 38.2231 76.1234 38.6901C74.7245 39.2165 73.3376 39.76 71.9748 40.3289C71.5889 40.4902 71.0582 40.4138 70.7929 40.1675C70.5396 39.9298 70.5155 39.5307 70.8652 39.3269C72.1557 38.5542 73.4461 37.7815 74.7365 37.0004C74.8933 36.907 75.0501 36.8136 75.2068 36.7202C75.2551 36.6947 75.3998 36.6098 75.4963 36.5588C75.4963 36.5588 75.5204 36.5503 75.5325 36.5418C75.5445 36.5418 75.5566 36.5249 75.5686 36.5164C75.5686 36.5164 75.5807 36.5164 75.5928 36.5079L75.5928 36.4994C75.7134 36.4484 75.8099 36.389 75.9063 36.3381C76.2681 36.1428 76.642 35.939 77.0158 35.7437C77.6791 35.3871 78.3544 35.0304 79.0298 34.6738C79.3675 34.4955 79.7052 34.3172 80.0429 34.1474C80.079 34.1304 80.1152 34.1134 80.1634 34.0964C80.1634 34.0964 80.1996 34.0709 80.2478 34.0455C80.4287 33.9351 80.6217 33.8247 80.8146 33.7143C81.4659 33.3407 82.1172 32.9671 82.7684 32.5935C84.2276 31.7699 85.8436 31.0566 87.4114 30.3349C88.135 30.0037 88.8104 29.6301 89.5339 29.2989C90.2575 28.9678 90.969 28.6366 91.6926 28.3055C93.1398 27.6517 94.5991 27.0233 96.1066 26.4374C99.1095 25.2742 102.136 24.1279 105.272 23.1429C107.093 22.5655 108.926 22.0136 110.759 21.4786C109.276 21.2409 107.781 21.0286 106.285 20.8418C105.079 20.689 103.861 20.5531 102.643 20.4258C101.98 20.3578 101.943 20.3578 101.316 20.2984C100.653 20.2389 99.9898 20.188 99.3265 20.1371C94.5629 19.7804 89.7751 19.6531 84.9753 19.755C82.5633 19.8059 80.1514 19.9163 77.7394 20.0776C76.5575 20.1625 75.3756 20.2559 74.1938 20.3663C73.9526 20.3918 73.6994 20.4088 73.4702 20.4342L73.4461 20.4342C73.4461 20.4342 73.422 20.4342 73.4099 20.4342L73.3858 20.4342L73.3616 20.4342C73.1928 20.4512 72.9034 20.4767 72.8552 20.4852C72.2642 20.5446 71.6733 20.6041 71.0944 20.672C66.4152 21.1984 61.7842 21.9541 57.2497 22.9306C55.1875 23.3722 53.1493 23.8646 51.1354 24.3996C50.1464 24.6628 49.1576 24.9345 48.1687 25.2232C48.0481 25.2572 47.9274 25.2911 47.8068 25.3336C47.8068 25.3336 47.7707 25.3421 47.7465 25.3506L47.7225 25.3506C47.6984 25.3506 47.6862 25.3676 47.6621 25.3676C47.6621 25.3676 47.6621 25.3676 47.65 25.3676L47.626 25.3676C47.626 25.3676 47.6018 25.3761 47.5898 25.3845L47.5657 25.3845C47.5657 25.3845 47.5536 25.393 47.5415 25.4015C47.5415 25.4015 47.4933 25.41 47.4813 25.4185L47.1195 25.5289C46.6009 25.6902 46.0823 25.8431 45.5758 26.0129C41.6804 27.2526 37.8936 28.6536 34.2395 30.216C32.3943 31.0057 30.5974 31.8293 28.8126 32.6869C27.9322 33.1114 27.076 33.5445 26.2197 33.986C25.7856 34.2068 25.3635 34.4276 24.9414 34.6568C24.7364 34.7672 24.5193 34.8861 24.3143 34.9965C24.3143 34.9965 24.266 35.0135 24.254 35.0219C24.2419 35.0304 24.2178 35.0389 24.2058 35.0474C24.1213 35.0899 24.049 35.1323 23.9766 35.1748C17.2352 38.8854 11.0726 43.1904 5.70592 47.8859C5.04263 48.4633 4.31901 49.0068 3.64366 49.5672C2.95625 50.1361 1.61766 50.1106 0.833767 49.6861L0.845765 49.737Z" fill="white"/>
</svg>
