<svg width="24" height="24" viewBox="0 0 24 24" fill="none" xmlns="http://www.w3.org/2000/svg">
<path d="M12.0003 2.90137C6.98369 2.90137 2.90234 6.98272 2.90234 11.9994C2.90234 17.016 6.98369 21.0973 12.0003 21.0973C17.2283 21.0973 21.4156 16.705 21.0792 11.4054C20.7723 6.63694 16.7844 2.90137 12.0003 2.90137ZM16.3829 17.8067C13.9507 19.5664 10.0506 19.5669 7.61785 17.8067C5.08981 15.9774 5.1346 12.986 7.57541 11.187C7.64755 11.1338 7.67439 11.0387 7.64235 10.955C7.1947 9.78575 6.46346 7.41277 7.23179 5.97829C7.51837 5.44316 7.99572 5.09948 8.61213 4.98441C9.16971 4.88058 9.69149 5.0225 10.121 5.39537C11.0794 6.22738 11.4335 8.03253 11.4542 9.64753C11.4557 9.759 11.5489 9.84788 11.6603 9.84343C11.8869 9.83439 12.1137 9.83439 12.3403 9.84343C12.4517 9.84788 12.545 9.75905 12.5464 9.64753C12.5671 8.03253 12.9212 6.22738 13.8796 5.39537C14.3092 5.02245 14.8308 4.88023 15.3885 4.98441C16.0049 5.09948 16.4822 5.44316 16.7688 5.97824C17.5371 7.41277 16.8059 9.78575 16.3582 10.955C16.3262 11.0387 16.3531 11.1338 16.4252 11.187C18.8693 12.9883 18.9075 15.9799 16.3829 17.8067Z" fill="white"/>
<path d="M15.5965 11.5929C15.4283 11.489 15.3613 11.2778 15.4388 11.096C16.1628 9.39673 17.0466 6.10845 15.2411 5.77138C14.9229 5.71204 14.649 5.78682 14.4033 6.00003C13.6916 6.61794 13.2703 8.33636 13.3549 10.2762C13.3656 10.5217 13.1539 10.7196 12.9082 10.6907C12.3087 10.6196 11.6905 10.6196 11.0909 10.6907C10.8463 10.7198 10.6335 10.5223 10.6443 10.2762C10.729 8.33641 10.3077 6.61794 9.59593 6.00003C9.34943 5.78607 9.07529 5.71219 8.75811 5.77138C6.95156 6.10865 7.83777 9.39987 8.56046 11.096C8.63794 11.2778 8.5709 11.489 8.40274 11.5929C7.2146 12.327 6.5332 13.38 6.5332 14.4819C6.5332 16.6019 8.98541 18.3267 11.9995 18.3267C15.0137 18.3267 17.4659 16.6019 17.4659 14.4819C17.466 13.38 16.7846 12.327 15.5965 11.5929ZM11.1628 14.2147C11.1628 14.4355 10.9838 14.6146 10.7629 14.6146C10.5421 14.6146 10.363 14.4355 10.363 14.2147V13.4932C10.363 13.2724 10.5421 13.0933 10.7629 13.0933C10.9838 13.0933 11.1628 13.2724 11.1628 13.4932V14.2147ZM13.6362 14.2147C13.6362 14.4355 13.4572 14.6146 13.2363 14.6146C13.0155 14.6146 12.8364 14.4355 12.8364 14.2147V13.4932C12.8364 13.2724 13.0155 13.0933 13.2363 13.0933C13.4572 13.0933 13.6362 13.2724 13.6362 13.4932V14.2147Z" fill="white"/>
<path d="M20.4835 3.5163C15.7959 -1.17127 8.19535 -1.17576 3.50724 3.5248C-1.16823 8.21266 -1.17293 15.7944 3.51624 20.4835C8.20455 25.1719 15.8013 25.1751 20.4905 20.4756C25.1687 15.7871 25.1724 8.20521 20.4835 3.5163ZM11.9999 21.8977C6.54217 21.8977 2.10205 17.4576 2.10205 11.9999C2.10205 6.54223 6.54217 2.10211 11.9999 2.10211C17.2349 2.10211 21.5434 6.17186 21.877 11.355C22.2454 17.1604 17.6396 21.8977 11.9999 21.8977Z" fill="white"/>
</svg>
